# xmcd
#
# Track frame offsets: 
#        150
#        17460
#        31013
#        43541
#        61098
#        79063
#        90233
#        106540
#        119328
#        135073
#        148048
#        162304
#        175649
#
# Disc length: 2582 seconds
#
# Revision: 7
# Processed by: cddbd v1.5.2PL0 Copyright (c) Steve Scherf et al.
# Submitted via: ExactAudioCopyFreeDBPlugin 1.0
#
DISCID=860a140d
DTITLE=Various Artist - Cadillac Records:  Music From The Motion Pict
DTITLE=ure
DYEAR=2008
DGENRE=Rhythm and Blues
TTITLE0=Jeffrey Wright - I'm A Man
TTITLE1=Beyoncé Knowles - At Last
TTITLE2=Mos Def - No Particular Place to Go
TTITLE3=Jeffrey Wright - I'm Your Hoochie Coochie Man
TTITLE4=Beyoncé Knowles - Once in a Lifetime
TTITLE5=Raphael Saadiq - Let's Take a Walk
TTITLE6=Solange Knowles - 6 O'Clock Blues
TTITLE7=Mos Def - Nadine
TTITLE8=Mary Mary - The Sound
TTITLE9=Little Walter - Last Night
TTITLE10=Beyoncé Knowles - I'd Rather Go Blind
TTITLE11=Columbus Short - My Babe
TTITLE12=Nas Featuring Olu Dara - Bridging the Gap
EXTD=
EXTT0=
EXTT1=
EXTT2=
EXTT3=
EXTT4=
EXTT5=
EXTT6=
EXTT7=
EXTT8=
EXTT9=
EXTT10=
EXTT11=
EXTT12=
PLAYORDER=
